<?xml version="1.0" encoding="UTF-8" standalone="no"?>
<svg width="1e3" height="1e3" version="1.1" id="svg8" sodipodi:docname="favicon.svg" inkscape:version="1.2.2 (b0a8486541, 2022-12-01)" xmlns:inkscape="http://www.inkscape.org/namespaces/inkscape" xmlns:sodipodi="http://sodipodi.sourceforge.net/DTD/sodipodi-0.dtd" xmlns="http://www.w3.org/2000/svg" xmlns:svg="http://www.w3.org/2000/svg">
  <defs id="defs12" />
  <sodipodi:namedview id="namedview10" pagecolor="#ffffff" bordercolor="#000000" borderopacity="0.25" inkscape:showpageshadow="2" inkscape:pageopacity="0.0" inkscape:pagecheckerboard="0" inkscape:deskcolor="#d1d1d1" showgrid="false" inkscape:zoom="0.236" inkscape:cx="292.3728813559322" inkscape:cy="499.9999999999999" inkscape:window-width="1366" inkscape:window-height="699" inkscape:window-x="0" inkscape:window-y="0" inkscape:window-maximized="1" inkscape:current-layer="svg8" />
  <style id="style2">path {fill: #313131} @media (prefers-color-scheme: dark) {path {fill:#f6f5f4}}</style>
  <rect width="1e3" height="1e3" ry="150" fill="#33d17a" id="rect4" />
  <path sodipodi:type="star" style="fill:#000000;stroke-width:6.80693;-inkscape-stroke:none;paint-order:stroke fill markers;stop-color:#000000" id="path224" inkscape:flatsided="false" sodipodi:sides="5" sodipodi:cx="0" sodipodi:cy="337.4271850585938" sodipodi:r1="682.7262573242188" sodipodi:r2="368.6721801757812" sodipodi:arg1="0.5235987755982988" sodipodi:arg2="1.151917306316257" inkscape:rounded="0.2200000000000021" inkscape:randomized="0" d="M 591.2582826734451,678.7903137207031 C 542.7120485578315,762.8748577250795 238.6508682840803,634.7349160210599 149.952484960134,674.2259806173731 C 61.2541016361877,713.7170452136863 -46.9760056762605,1025.420894853873 -141.9467705259588,1005.234235618249 C -236.9175353756571,985.0475763826251 -209.0092808546619,656.2707898861215 -273.9768229951013,584.1170245272567 C -338.9443651355406,511.9632591683918 -668.8372849526957,505.3520971004752 -678.9862114517694,408.7915115691711 C -689.1351379508431,312.230926037867 -367.825707816434,237.1756389750798 -319.2794737008204,153.0910949707034 C -270.7332395852067,69.00655096632684 -366.3881693677039,-246.7832215369666 -277.6897860437576,-286.2742861332798 C -188.9914027198115,-325.765350729593 -18.3195085118822,-43.37528267327213 76.651256337816,-23.18862343764806 C 171.6220211875144,-3.001964202023974 442.3969432076017,-191.5596148407395 507.3644853480411,-119.4058494818746 C 572.3320274884804,-47.25208412300977 356.5036288988979,202.3298630839796 366.6525553979715,298.8904486152836 C 376.8014818970452,395.4510341465878 639.8045167890587,594.7057697163265 591.2582826734451,678.7903137207031 Z" inkscape:transform-center-y="-132.8437280716472" transform="matrix(0.6627139733147592,0.2978307032212639,-0.2978307032212639,0.6627139733147593,599.9962893073976,320.1002141287144)" inkscape:transform-center-x="-73.20896193445503" />
</svg>
